<?xml version="1.0" encoding="utf-8" standalone="yes"?> <svg width="1000" height="1000" viewBox="-1 -1 43 43" xmlns="http://www.w3.org/2000/svg" xmlns:xlink="http://www.w3.org/1999/xlink" shape-rendering="crispEdges" id="qr code"><rect id="qr background" fill-opacity="1" fill="rgb(255, 255, 255)" x="-1" y="-1" width="43" height="43"></rect><path fill-opacity="1" fill="rgb(0, 0, 0)" id="qr dark pixels" fill-rule="evenodd" d="M 10 0 L 14 0 L 14 1 L 16 1 L 16 2 L 17 2 L 17 0 L 21 0 L 21 1 L 18 1 L 18 2 L 20 2 L 20 3 L 17 3 L 17 4 L 16 4 L 16 3 L 15 3 L 15 2 L 14 2 L 14 3 L 13 3 L 13 1 L 10 1 z M 22 0 L 24 0 L 24 1 L 22 1 z M 26 0 L 27 0 L 27 1 L 28 1 L 28 2 L 27 2 L 27 3 L 26 3 L 26 2 L 25 2 L 25 3 L 26 3 L 26 5 L 25 5 L 25 4 L 24 4 L 24 1 L 26 1 z M 28 0 L 32 0 L 32 1 L 30 1 L 30 2 L 29 2 L 29 1 L 28 1 z M 8 1 L 9 1 L 9 2 L 8 2 z M 21 1 L 22 1 L 22 2 L 23 2 L 23 4 L 24 4 L 24 5 L 21 5 L 21 4 L 22 4 L 22 3 L 21 3 z M 32 2 L 33 2 L 33 3 L 32 3 z M 8 3 L 9 3 L 9 4 L 8 4 z M 10 3 L 11 3 L 11 4 L 12 4 L 12 5 L 11 5 L 11 7 L 10 7 L 10 6 L 9 6 L 9 7 L 8 7 L 8 5 L 10 5 z M 14 3 L 15 3 L 15 4 L 14 4 z M 20 3 L 21 3 L 21 4 L 20 4 z M 27 3 L 30 3 L 30 4 L 29 4 L 29 8 L 28 8 L 28 6 L 27 6 L 27 5 L 28 5 L 28 4 L 27 4 z M 31 3 L 32 3 L 32 4 L 33 4 L 33 5 L 31 5 L 31 8 L 30 8 L 30 4 L 31 4 z M 15 4 L 16 4 L 16 5 L 17 5 L 17 7 L 16 7 L 16 6 L 15 6 z M 18 4 L 19 4 L 19 7 L 18 7 z M 20 5 L 21 5 L 21 7 L 20 7 z M 12 6 L 13 6 L 13 7 L 12 7 z M 14 6 L 15 6 L 15 7 L 14 7 z M 22 6 L 23 6 L 23 7 L 22 7 z M 24 6 L 25 6 L 25 8 L 23 8 L 23 7 L 24 7 z M 26 6 L 27 6 L 27 8 L 26 8 z M 32 6 L 33 6 L 33 8 L 32 8 z M 11 7 L 12 7 L 12 8 L 11 8 z M 15 7 L 16 7 L 16 9 L 15 9 z M 21 7 L 22 7 L 22 8 L 21 8 z M 0 8 L 5 8 L 5 10 L 4 10 L 4 9 L 2 9 L 2 10 L 1 10 L 1 9 L 0 9 z M 6 8 L 9 8 L 9 9 L 10 9 L 10 11 L 11 11 L 11 12 L 13 12 L 13 13 L 10 13 L 10 12 L 9 12 L 9 11 L 8 11 L 8 15 L 6 15 L 6 16 L 7 16 L 7 17 L 5 17 L 5 18 L 2 18 L 2 17 L 3 17 L 3 15 L 4 15 L 4 16 L 5 16 L 5 14 L 4 14 L 4 13 L 6 13 L 6 14 L 7 14 L 7 13 L 6 13 L 6 12 L 7 12 L 7 11 L 6 11 L 6 10 L 7 10 L 7 9 L 6 9 z M 10 8 L 11 8 L 11 9 L 10 9 z M 13 8 L 14 8 L 14 9 L 13 9 z M 17 8 L 19 8 L 19 9 L 20 9 L 20 8 L 21 8 L 21 9 L 22 9 L 22 10 L 23 10 L 23 11 L 22 11 L 22 12 L 20 12 L 20 11 L 21 11 L 21 10 L 19 10 L 19 11 L 18 11 L 18 9 L 17 9 z M 22 8 L 23 8 L 23 9 L 22 9 z M 25 8 L 26 8 L 26 10 L 28 10 L 28 12 L 30 12 L 30 13 L 29 13 L 29 14 L 30 14 L 30 13 L 35 13 L 35 12 L 36 12 L 36 13 L 37 13 L 37 14 L 38 14 L 38 16 L 34 16 L 34 15 L 36 15 L 36 14 L 31 14 L 31 15 L 29 15 L 29 16 L 28 16 L 28 15 L 27 15 L 27 14 L 28 14 L 28 13 L 27 13 L 27 14 L 26 14 L 26 13 L 24 13 L 24 10 L 25 10 zM 25 11 L 27 11 L 27 12 L 25 12 z M 27 8 L 28 8 L 28 9 L 27 9 z M 33 8 L 34 8 L 34 9 L 35 9 L 35 8 L 36 8 L 36 9 L 37 9 L 37 8 L 38 8 L 38 10 L 39 10 L 39 11 L 38 11 L 38 12 L 37 12 L 37 11 L 35 11 L 35 10 L 33 10 z M 39 8 L 40 8 L 40 9 L 41 9 L 41 10 L 39 10 z M 12 9 L 13 9 L 13 11 L 12 11 z M 14 9 L 15 9 L 15 10 L 14 10 z M 16 9 L 17 9 L 17 11 L 16 11 L 16 12 L 14 12 L 14 11 L 15 11 L 15 10 L 16 10 z M 28 9 L 30 9 L 30 11 L 29 11 L 29 10 L 28 10 z M 31 9 L 32 9 L 32 10 L 31 10 z M 3 10 L 4 10 L 4 11 L 3 11 z M 32 10 L 33 10 L 33 12 L 32 12 z M 0 11 L 3 11 L 3 12 L 0 12 z M 30 11 L 31 11 L 31 12 L 30 12 z M 39 11 L 40 11 L 40 13 L 41 13 L 41 14 L 38 14 L 38 12 L 39 12 z M 3 12 L 4 12 L 4 13 L 3 13 z M 18 12 L 19 12 L 19 13 L 18 13 z M 22 12 L 23 12 L 23 13 L 24 13 L 24 14 L 22 14 L 22 15 L 23 15 L 23 17 L 22 17 L 22 16 L 21 16 L 21 17 L 22 17 L 22 18 L 21 18 L 21 19 L 20 19 L 20 18 L 18 18 L 18 19 L 19 19 L 19 20 L 17 20 L 17 18 L 16 18 L 16 17 L 17 17 L 17 16 L 18 16 L 18 17 L 19 17 L 19 16 L 18 16 L 18 14 L 20 14 L 20 15 L 21 15 L 21 14 L 20 14 L 20 13 L 22 13 z M 0 13 L 3 13 L 3 15 L 2 15 L 2 14 L 1 14 L 1 15 L 0 15 z M 9 13 L 10 13 L 10 15 L 9 15 z M 14 13 L 17 13 L 17 14 L 14 14 z M 11 14 L 14 14 L 14 15 L 12 15 L 12 17 L 13 17 L 13 16 L 14 16 L 14 17 L 15 17 L 15 18 L 16 18 L 16 19 L 14 19 L 14 20 L 11 20 L 11 19 L 12 19 L 12 18 L 11 18 z M 8 15 L 9 15 L 9 17 L 8 17 z M 16 15 L 17 15 L 17 16 L 16 16 z M 31 15 L 33 15 L 33 16 L 32 16 L 32 17 L 37 17 L 37 18 L 36 18 L 36 19 L 35 19 L 35 20 L 33 20 L 33 19 L 34 19 L 34 18 L 30 18 L 30 17 L 31 17 z M 1 16 L 2 16 L 2 17 L 1 17 z M 24 16 L 25 16 L 25 18 L 23 18 L 23 17 L 24 17 z M 26 16 L 28 16 L 28 17 L 26 17 z M 29 16 L 30 16 L 30 17 L 29 17 z M 38 16 L 41 16 L 41 18 L 40 18 L 40 19 L 41 19 L 41 20 L 40 20 L 40 21 L 41 21 L 41 22 L 39 22 L 39 23 L 38 23 L 38 22 L 35 22 L 35 23 L 36 23 L 36 24 L 37 24 L 37 25 L 38 25 L 38 26 L 37 26 L 37 27 L 38 27 L 38 28 L 36 28 L 36 26 L 33 26 L 33 28 L 32 28 L 32 26 L 31 26 L 31 27 L 28 27 L 28 28 L 27 28 L 27 26 L 28 26 L 28 25 L 29 25 L 29 26 L 30 26 L 30 25 L 31 25 L 31 24 L 33 24 L 33 25 L 35 25 L 35 24 L 33 24 L 33 23 L 34 23 L 34 22 L 33 22 L 33 23 L 32 23 L 32 22 L 31 22 L 31 21 L 37 21 L 37 20 L 36 20 L 36 19 L 37 19 L 37 18 L 38 18 L 38 20 L 39 20 L 39 18 L 38 18 z M 7 17 L 8 17 L 8 19 L 9 19 L 9 20 L 8 20 L 8 22 L 7 22 L 7 21 L 6 21 L 6 22 L 5 22 L 5 21 L 3 21 L 3 22 L 5 22 L 5 24 L 3 24 L 3 23 L 1 23 L 1 24 L 0 24 L 0 21 L 2 21 L 2 20 L 5 20 L 5 19 L 6 19 L 6 20 L 7 20 L 7 19 L 6 19 L 6 18 L 7 18 z M 9 18 L 10 18 L 10 19 L 9 19 z M 27 18 L 28 18 L 28 19 L 27 19 z M 0 19 L 2 19 L 2 20 L 0 20 z M 21 19 L 22 19 L 22 20 L 21 20 z M 24 19 L 25 19 L 25 20 L 24 20 z M 28 19 L 29 19 L 29 20 L 30 20 L 30 22 L 28 22 z M 31 19 L 32 19 L 32 20 L 31 20 z M 14 20 L 17 20 L 17 21 L 16 21 L 16 22 L 17 22 L 17 21 L 19 21 L 19 22 L 18 22 L 18 23 L 16 23 L 16 24 L 18 24 L 18 25 L 17 25 L 17 26 L 16 26 L 16 25 L 13 25 L 13 24 L 15 24 L 15 21 L 14 21 z M 19 20 L 20 20 L 20 21 L 19 21 z M 22 20 L 23 20 L 23 21 L 22 21 z M 25 20 L 27 20 L 27 22 L 28 22 L 28 25 L 24 25 L 24 24 L 23 24 L 23 23 L 25 23 L 25 24 L 27 24 L 27 23 L 26 23 L 26 22 L 25 22 z M 9 21 L 10 21 L 10 22 L 11 22 L 11 24 L 10 24 L 10 26 L 7 26 L 7 25 L 9 25 L 9 23 L 8 23 L 8 22 L 9 22 z M 12 21 L 13 21 L 13 22 L 12 22 z M 23 21 L 24 21 L 24 22 L 23 22 z M 6 22 L 7 22 L 7 23 L 6 23 z M 13 22 L 14 22 L 14 23 L 13 23 z M 20 22 L 21 22 L 21 23 L 22 23 L 22 24 L 20 24 z M 22 22 L 23 22 L 23 23 L 22 23 z M 30 22 L 31 22 L 31 23 L 30 23 z M 12 23 L 13 23 L 13 24 L 12 24 z M 39 23 L 40 23 L 40 24 L 39 24 z M 1 24 L 3 24 L 3 25 L 1 25 z M 6 24 L 7 24 L 7 25 L 6 25 z M 19 24 L 20 24 L 20 25 L 22 25 L 22 27 L 24 27 L 24 28 L 21 28 L 21 27 L 20 27 L 20 26 L 19 26 L 19 27 L 18 27 L 18 25 L 19 25 z M 22 24 L 23 24 L 23 25 L 22 25 z M 29 24 L 30 24 L 30 25 L 29 25 z M 38 24 L 39 24 L 39 25 L 38 25 z M 4 25 L 6 25 L 6 26 L 7 26 L 7 27 L 6 27 L 6 28 L 5 28 L 5 26 L 4 26 z M 11 25 L 13 25 L 13 29 L 12 29 L 12 26 L 11 26 z M 23 25 L 24 25 L 24 26 L 23 26 z M 40 25 L 41 25 L 41 26 L 40 26 z M 0 26 L 1 26 L 1 28 L 2 28 L 2 30 L 1 30 L 1 33 L 0 33 z M 3 26 L 4 26 L 4 28 L 5 28 L 5 29 L 3 29 z M 10 26 L 11 26 L 11 28 L 10 28 L 10 29 L 8 29 L 8 28 L 9 28 L 9 27 L 10 27 z M 15 26 L 16 26 L 16 29 L 18 29 L 18 31 L 17 31 L 17 30 L 15 30 L 15 31 L 12 31 L 12 32 L 15 32 L 15 33 L 14 33 L 14 34 L 16 34 L 16 31 L 17 31 L 17 32 L 18 32 L 18 31 L 20 31 L 20 30 L 19 30 L 19 29 L 22 29 L 22 31 L 23 31 L 23 33 L 24 33 L 24 34 L 23 34 L 23 35 L 22 35 L 22 32 L 20 32 L 20 33 L 21 33 L 21 35 L 22 35 L 22 36 L 20 36 L 20 34 L 18 34 L 18 35 L 19 35 L 19 36 L 17 36 L 17 35 L 16 35 L 16 36 L 17 36 L 17 37 L 16 37 L 16 38 L 17 38 L 17 39 L 16 39 L 16 41 L 15 41 L 15 39 L 14 39 L 14 38 L 15 38 L 15 37 L 14 37 L 14 36 L 15 36 L 15 35 L 14 35 L 14 36 L 13 36 L 13 35 L 12 35 L 12 34 L 11 34 L 11 33 L 9 33 L 9 31 L 10 31 L 10 32 L 11 32 L 11 31 L 10 31 L 10 29 L 11 29 L 11 30 L 13 30 L 13 29 L 15 29 L 15 28 L 14 28 L 14 27 L 15 27 z M 25 26 L 26 26 L 26 27 L 25 27 z M 39 26 L 40 26 L 40 27 L 41 27 L 41 28 L 40 28 L 40 30 L 39 30 L 39 29 L 38 29 L 38 28 L 39 28 z M 19 27 L 20 27 L 20 28 L 19 28 z M 34 27 L 35 27 L 35 28 L 34 28 z M 6 28 L 7 28 L 7 29 L 6 29 z M 18 28 L 19 28 L 19 29 L 18 29 z M 25 28 L 27 28 L 27 29 L 26 29 L 26 30 L 25 30 z M 29 28 L 30 28 L 30 29 L 29 29 z M 33 28 L 34 28 L 34 29 L 37 29 L 37 31 L 38 31 L 38 32 L 36 32 L 36 31 L 35 31 L 35 30 L 34 30 L 34 31 L 33 31 L 33 30 L 32 30 L 32 29 L 33 29 z M 23 29 L 24 29 L 24 30 L 23 30 z M 30 29 L 31 29 L 31 30 L 30 30 z M 2 30 L 5 30 L 5 31 L 6 31 L 6 32 L 4 32 L 4 33 L 2 33 z M 6 30 L 9 30 L 9 31 L 6 31 z M 27 30 L 28 30 L 28 31 L 27 31 z M 29 30 L 30 30 L 30 31 L 29 31 z M 24 31 L 25 31 L 25 32 L 26 32 L 26 31 L 27 31 L 27 33 L 24 33 z M 28 31 L 29 31 L 29 32 L 28 32 z M 6 32 L 8 32 L 8 33 L 6 33 z M 29 32 L 30 32 L 30 33 L 32 33 L 32 36 L 31 36 L 31 35 L 30 35 L 30 34 L 29 34 L 29 36 L 27 36 L 27 37 L 26 37 L 26 38 L 29 38 L 29 36 L 30 36 L 30 37 L 31 37 L 31 38 L 30 38 L 30 39 L 28 39 L 28 41 L 22 41 L 22 40 L 21 40 L 21 39 L 24 39 L 24 40 L 27 40 L 27 39 L 24 39 L 24 38 L 25 38 L 25 37 L 24 37 L 24 36 L 26 36 L 26 35 L 27 35 L 27 34 L 28 34 L 28 33 L 29 33 z M 39 32 L 40 32 L 40 33 L 39 33 z M 8 33 L 9 33 L 9 35 L 8 35 z M 40 33 L 41 33 L 41 34 L 40 34 z M 37 34 L 38 34 L 38 36 L 37 36 z M 39 34 L 40 34 L 40 37 L 38 37 L 38 36 L 39 36 z M 9 35 L 11 35 L 11 36 L 12 36 L 12 37 L 10 37 L 10 38 L 9 38 L 9 40 L 10 40 L 10 39 L 11 39 L 11 41 L 8 41 L 8 36 L 9 36 z M 23 35 L 24 35 L 24 36 L 23 36 z M 22 36 L 23 36 L 23 37 L 22 37 z M 12 37 L 13 37 L 13 38 L 12 38 z M 18 37 L 22 37 L 22 38 L 21 38 L 21 39 L 20 39 L 20 38 L 19 38 L 19 39 L 20 39 L 20 40 L 18 40 z M 23 37 L 24 37 L 24 38 L 23 38 z M 40 37 L 41 37 L 41 38 L 40 38 z M 31 38 L 32 38 L 32 39 L 31 39 z M 34 38 L 35 38 L 35 40 L 34 40 z M 36 38 L 37 38 L 37 39 L 38 39 L 38 40 L 36 40 z M 38 38 L 39 38 L 39 39 L 38 39 z M 12 39 L 13 39 L 13 40 L 14 40 L 14 41 L 12 41 z M 30 39 L 31 39 L 31 41 L 29 41 L 29 40 L 30 40 z M 32 39 L 33 39 L 33 40 L 32 40 z M 39 39 L 40 39 L 40 40 L 39 40 z M 20 40 L 21 40 L 21 41 L 20 41 z M 33 40 L 34 40 L 34 41 L 33 41 z M 35 40 L 36 40 L 36 41 L 35 41 z M 38 40 L 39 40 L 39 41 L 38 41 z"></path><path id="qr squares" d="M0,0h7h0v0v7v0h0h-7h0v0v-7v0h0zM1,1h5h0v0v5v0h0h-5h0v0v-5v0h0zM2,2h3h0v0v3v0h0h-3h0v0v-3v0h0z M34,0h7h0v0v7v0h0h-7h0v0v-7v0h0zM35,1h5h0v0v5v0h0h-5h0v0v-5v0h0zM36,2h3h0v0v3v0h0h-3h0v0v-3v0h0z M0,34h7h0v0v7v0h0h-7h0v0v-7v0h0zM1,35h5h0v0v5v0h0h-5h0v0v-5v0h0zM2,36h3h0v0v3v0h0h-3h0v0v-3v0h0zM32,32h5h0v0v5v0h0h-5h0v0v-5v0h0zM33,33h3h0v0v3v0h0h-3h0v0v-3v0h0zM34,34h1h0v0v1v0h0h-1h0v0v-1v0h0z" fill-rule="evenodd" fill-opacity="1" fill="rgb(0, 0, 0)"></path></svg>