<?xml version="1.0" encoding="utf-8"?>
<!-- Generator: Adobe Illustrator 21.1.0, SVG Export Plug-In . SVG Version: 6.00 Build 0)  -->
<svg version="1.1" id="Calque_1" xmlns="http://www.w3.org/2000/svg" xmlns:xlink="http://www.w3.org/1999/xlink" x="0px" y="0px"
	 viewBox="0 0 432 432" style="enable-background:new 0 0 432 432;" xml:space="preserve">
<style type="text/css">
	.st0{fill:#AE3034;}
	.st1{fill:#3E904D;}
	.st2{fill:#F7EB5B;}
	.st3{fill:#221F20;}
	.st4{fill:#BC9A72;}
	.st5{fill:#FFFFFF;}
	.st6{fill:#E9963E;}
	.st7{fill:#EFB156;}
	.st8{fill:#5EB057;}
	.st9{fill:#A27D56;}
	.st10{fill:#BD8346;}
	.st11{fill:#DD658D;}
	.st12{fill:#dddddd;}
	.st13{fill:#81BF8E;}
	.st14{fill:#ED7E87;}
	.st15{fill:#B0202B;}
	.st16{fill:#BA9453;}
	.st17{fill:#B99352;}
	.st18{fill:#45A49C;}
	.st19{fill:#59B178;}
	.st20{fill:#C9A25F;}
	.st21{fill:#BCBDBF;}
	.st22{fill:#C7345D;}
	.st23{fill:#2E3192;}
	.st24{fill:#8CC63F;}
	.st25{fill:#22B573;}
	.st26{fill:#333333;}
	.st27{fill:#B1A097;}
	.st28{fill:#574B43;}
	.st29{fill:#85328A;}
	.st30{fill:#53A7DB;}
	.st31{fill:#912D61;}
	.st32{fill:#835F41;}
	.st33{fill:#929496;}
	.st34{fill:#808080;}
	.st35{fill:#6F4E2F;}
	.st36{fill:#A6A8AA;}
	.st37{fill:#DF643A;}
	.st38{fill:#98C355;}
	.st39{fill:#D35998;}
	.st40{fill:#6F665A;}
	.st41{fill:#BFB49D;}
	.st42{fill:#AE82B3;}
	.st43{fill:#B3B3B3;}
	.st44{fill:#5E328B;}
	.st45{fill:#DA404D;}
	.st46{fill:#A994C1;}
	.st47{fill:#8B575B;}
	.st48{fill:#C9C0AF;}
	.st49{fill:#A67C52;}
	.st50{fill:#86A391;}
	.st51{fill:#6595A9;}
	.st52{fill:#483E49;}
	.st53{fill:#F6BA00;}
	.st54{fill:#FC8080;}
	.st55{fill:#1A1A1A;}
	.st56{fill:#749FA8;}
	.st57{fill:#ABC337;}
	.st58{fill:#F67E20;}
	.st59{fill:#52A9B2;}
	.st60{fill:#925A8B;}
	.st61{fill:#DD8383;}
	.st62{fill:#929C3B;}
	.st63{fill:#4D4D4D;}
	.st64{fill:#C69C6D;}
	.st65{fill:#DBB753;}
	.st66{fill:#9EB9B4;}
	.st67{fill:#F2F2F2;}
	.st68{fill:#E2C87F;}
	.st69{fill:#E8BDC4;}
	.st70{fill:#D86D29;}
	.st71{fill:#E0CDAD;}
	.st72{fill:#E6E6E6;}
	.st73{fill:#CCD6CE;}
	.st74{fill:#9FD3C7;}
	.st75{fill-rule:evenodd;clip-rule:evenodd;}
	.st76{fill:#E5BE51;}
	.st77{fill:#B3A693;}
	.st78{fill:#717370;}
	.st79{fill:#9FB14D;}
	.st80{fill:#736357;}
	.st81{fill:#51642D;}
	.st82{fill:#743315;}
	.st83{fill:#0071BC;}
	.st84{fill:#9C1B20;}
	.st85{fill:#009245;}
	.st86{fill:#F6E6CC;}
	.st87{fill:#84CBCB;}
	.st88{fill:#7D9B39;}
	.st89{fill:#3C4E5C;}
	.st90{fill:#998675;}
	.st91{fill:#C7B299;}
	.st92{fill:#9B2F10;}
	.st93{fill:#E7A136;}
	.st94{fill:#978E43;}
	.st95{fill:#7D5E18;}
	.st96{fill:#F2C545;}
	.st97{fill:#E07D28;}
	.st98{fill:#E0D2BE;}
	.st99{fill:#C4A18D;}
	.st100{fill:#BCBD84;}
	.st101{fill:#5F645E;}
	.st102{fill:#CAC2C2;}
	.st103{fill:#959736;}
	.st104{fill:#B0D24A;}
	.st105{fill:#754C24;}
	.st106{fill:#603813;}
	.st107{fill:#8C4A33;}
	.st108{fill:#0B493A;}
	.st109{fill:#C17953;}
	.st110{fill:#F7C64D;}
	.st111{fill:#005371;}
	.st112{fill:#D3E2DC;}
	.st113{fill:#3E8A64;}
	.st114{fill:#299798;}
	.st115{fill:#731115;}
	.st116{fill:#4F4544;}
	.st117{fill:#4C6047;}
	.st118{fill:#4C301C;}
	.st119{fill:#867274;}
	.st120{fill:#C13F47;}
	.st121{fill:#BC8AA8;}
	.st122{fill:#634E42;}
	.st123{fill:#E1B8D7;}
	.st124{fill:#6D866B;}
	.st125{fill:#422918;}
	.st126{fill:#925F36;}
	.st127{fill:#1D1D1B;}
	.st128{fill:#00A099;}
	.st129{fill:#F8B133;}
	.st130{fill:#006633;}
	.st131{fill:#683B11;}
	.st132{fill:#B17F49;}
	.st133{fill:#A3897A;}
	.st134{fill:#E488B5;}
	.st135{fill:#93C01F;}
	.st136{fill:#EDE287;}
	.st137{fill:#E9CB9A;}
	.st138{fill:#EAB8CC;}
	.st139{fill:#7E4E24;}
	.st140{fill:#E5332A;}
	.st141{fill:#F29100;}
</style>
<g>
	<g>
		<g>
			<path class="st14" d="M373,233.1c-4.6,0-17.4,5.3-18,5.3c-1-11.7,5.6-30.3-3.2-30.3c-8.5,0-1.6,12.4-17.3,26.5
				c-1.9-9.2,4.7-27.2-2.1-27.2c-5.9,0-9.7,16-9.7,22.9c0,1.5-9.2,8.4-10.8,9.1c0.9-19.5,2.6-21.2-3.9-21.2c-6,0-1.4,3.5-16.8,16.2
				c-0.1,0.1-0.3,0.1-0.5,0.2c0.7-3.7,9.3-23,14-28.8c3.7,4.2,3.6,5.5,5.4,5.5c4.4,0,3.5-9.5-6.8-9.5c-19.7,0-27.6,34.1-27.6,34.2
				c-1.2,2.1-2.3,3.8-4.1,6.8c-0.5-1.7,0.2,1.4,2.2-33.4c0.1-1.9,19.1-16.4,19.1-30.8c0-1.8-0.6-7.7-8-7.7
				c-18.2,0-24.5,31.9-25.2,34.8c-1.2-0.4-2.8-1.1-5.3-1.1c-15.1,0-20.6,25.6-20.6,33.6c0,2.4,0.3,3.7,0.3,4c0,1.1-4.5,8.8-4.8,9.1
				c-0.6-1.4,0.1-26.7,0.1-27.1c0-5.5,0.2-14.4-7.1-14.4c-5.8,0-12.7,10.5-12.9,10.8c-0.1,0-0.2-0.1-0.3-0.1c0.1-4.5,0.2-9,0.3-13.5
				c6.7-0.8,17.8-1.6,22.2-15c6.2-19.1-21.2-29.8-33.2,7.1c-10.4-4.8-10.2,0.6-1.3,5.4c-2.9,15.3-2.2,16.3-2.2,22.4
				c0,2.4-5.4,8.8-6.3,10.1c-1.4-2.1,0.7-35.9,1.1-45.6c0.1-2.2,0.4,0,8.5-3.9c2.3-1.1,3.6-4.8-2.1-4.8c-3.2,0-3.8,1.6-6.2,1.9
				c0-7.3,0.8-10.2-3.5-10.2c-3.5,0-4.3,3-6.5,10.5c-17-5.5-26.6-9.9-40.5-9.9c-19.6,0-31.9,9.1-31.9,14.9c0,0.4,0.1,0.9,0.3,1.3
				c1.1,2.5,4.9,2.3,5.8-0.3c1.7-4.7,12.1-11.1,25.1-11.1c13.4,0,22.6,5.9,40.2,10.4c-0.2,4.5-0.8-4-2.2,33.8
				c-0.1,2.7-7,10.1-7.6,10.7c0.7-24.8,0.6-22.8-11.8-27.3c2.9-37.5-36.3-9.4-5.2,3.5c-1.6,7.5-4.2,14.4-8.8,20.6
				c-1.7-6.2-4.1-17.6-10.6-17.6c-3.3,0-3.2,2.9-3.2,4.8c0,22.2,15.3,31.2,27.1-6.2c5.2,2-9.4,30.2,9.4,30.2c6.3,0,8.9-3.8,11.5-6.7
				c1.3,4.7,1.1,8.7,8.2,8.7c5.3,0,8.1-4,10.5-7c1.9,6.7,1.4,9.5,7.8,9.5c6.9,0,5.7-2.6,6.3-10.9c0.3-4.7,5.6-16,7.8-19.1
				c0.3,5.8-8.1,46.6,7.7,46.6c6.2,0,5.4-2.2,13.7-14.9c10.4,1.8,11.4-0.7,19-8.2c1.1,13.7,1.6,17.2,7.7,17.2c5.9,0,6.7-5.2,14-15.8
				c11.6,3.6,15.9-4,19.4-7c0,6.8,1.1,10.8,8.8,10.8c0.2,0,10.3-0.4,16.5-9.7c4.1,4.8,12.9,5.1,18.6-1.6c-0.2,2.9-0.3,5.8-0.5,8.9
				c-18.9,8-31.4,12.8-31.4,26.2c0,6.2,5,21.8,18.8,21.8c18,0,21.4-28.2,24-45.2c17.1-6.6,24-9.3,24-11.2
				C378,233.6,374.1,233.1,373,233.1z M287.4,178.6c0,7-6.8,15.3-12.7,21.8c-0.1,0-0.2-0.1-0.3-0.1
				C277.9,171,287.4,169.7,287.4,178.6z M220.5,177.6c4.1-3.1,13.4,21.3-11,25.2C210.9,192.3,211.9,184.1,220.5,177.6z M152.7,205.1
				c-1.3,0-6.4-6-6.4-10c0-2.3,1.5-3.6,1.9-4.1C152.3,193.1,153.1,200.4,152.7,205.1z M257.7,230.7c0,2.2-8.6,10.4-9.5,11.1
				c-0.1,0-0.2-0.1-0.3-0.1c2.4-25.5,4.5-28.3,7-32.9c2,0.9,3.7,3.1,3.7,3.8C258.6,214,257.7,216.4,257.7,230.7z M331.9,287.8
				c-4,4.7-14.7-4-14.7-15.4c0-6.9,2.8-14.5,24.9-21.6C339.8,273.1,338.5,280.2,331.9,287.8z"/>
			<path class="st14" d="M130.8,240.9c-1.3-20.7-9.4-30.8-29.9-27.7c1-2.4,3.1-6.6,3.1-12.8c0-29.6-50-14.3-50,27.8
				c0,21.2,24.4,19.1,24.4-2.8c0-1.3-0.3-9.9-4.3-9.9c-6,0-2,20.5-9.1,24.2c-4.4-1.7-4.2-11.5-4.2-11.7c0-28,24.6-38.9,27.7-38.9
				c6.6,0,6,14.6,2.7,21.2c-2.4-7.8-4.6-15.3-9-15.3c-7.4,0-0.9,20.6,2.5,46.8c-0.5,0.7-14.5,7-14.5,19.2c0,24,46,26.7,59.7-13.4
				c2.9,1.1,4,1.7,5.9,1.7c1.3,0,4.2-0.5,4.2-1.8C139.9,245.3,130.9,241,130.8,240.9z M91,274.3c-13.7,0-18.5-17.2-5.9-26.5
				c0.7,12.1,0.4,17.8,6.8,17.8c8,0,4.7-11.2,4.1-23.3c3.4-1.9,14.6-2.9,20.3-1.1C116.3,257,102.4,274.3,91,274.3z M95.6,237.7
				c-0.6-4.5-1.2-9.1-1.8-13.5c1.9-1.4,8.5-6.9,13.3-6.9c3.1,0,8.7,8.4,9.4,19.4C103.2,236.8,109,236.5,95.6,237.7z"/>
			<path class="st14" d="M128.2,201.7c-6.5,1.4-6.7,10.9,0,10.9C134.8,212.6,133.8,200.4,128.2,201.7z"/>
		</g>
		<g>
			<path class="st12" d="M168.9,140.1c0.1-0.6,0.2-1.1,0.2-1.7c0.1-3.6,0-7.1,0.1-10.7c0.1-3.2,0.2-6.5,0.4-9.8
				c0.1-1.3,0.1-3,0.2-4.4c0-1.6,0.3-1.8,2.2-1.7c1.2,0.1,1.6,0.4,1.6,1.4c0,2-0.1,4.4-0.2,6.4c-0.1,2.5-0.2,4.9-0.2,7.5
				c-0.2,3.2-0.2,6.5-0.3,9.8c-0.1,2-0.1,4-0.1,6c-0.2,3.6-0.2,7.2-0.4,10.9c-0.1,2.5-0.1,4.9-0.2,7.3c0,0.1,0,0.2,0,0.4
				c-0.2,1.1-0.4,1.3-1.8,1.3c-0.2,0-0.3,0-0.5,0c-1-0.1-1.1-0.3-1.1-1.2c0-3.1-0.1-6.1-0.2-9.2c0-2.5,0.2-5.1,0.2-7.6
				c0-0.3,0-0.6,0-1c-3.2,0-6.3,0-9.6,0c0,0.2,0,0.5,0,0.8c-0.1,3.9-0.2,7.7-0.3,11.6c0,1.6-0.2,3.4-0.2,5c0,1.1-0.5,1.5-1.8,1.5
				c-0.7,0-1.5,0-2.1,0c-1.4,0-2-0.5-2.1-1.7c-0.2-2.5-0.2-5.3-0.2-7.9c-0.1-7,0.1-13.9,0-20.9c0-3.9-0.2-7.9-0.3-12
				c0-2.3,0.1-4.6,0.1-7c0.1-1.1,0.7-1.5,1.9-1.6c1.1,0,2.1,0.1,3,0.2c0.8,0.1,1.2,0.6,1.3,1.2c0.2,1.1,0.2,2.2,0.3,3.4
				c0.1,3,0.2,6.1,0.2,9.1c0.2,4.4,0.2,8.8,0.3,13.1c0,0.4,0,0.7,0,1.1C162.5,140.1,165.7,140.1,168.9,140.1z"/>
			<path class="st12" d="M183.5,145c-0.3,1.5-0.7,3-1,4.6c-0.6,3.7-1.6,8.5-2.6,12.2c-0.2,0.9-0.7,1.2-1.6,1c-0.7-0.2-0.8-0.4-0.7-1
				c0.1-0.8,0.2-1.8,0.4-2.6c0.8-4.1,1.9-9.2,2.7-13.4c0-0.2,0-0.4,0.1-0.7c-0.8,0.1-1.6,0.2-2.3,0.3c-1.1,0.1-1.4-0.1-1.6-1
				c-0.1-0.6-0.2-1.1-0.2-1.5c-0.1-0.8,0.2-1,1.1-1.1c0.7-0.1,1.3-0.2,2-0.3c0.7-0.1,1.2-0.1,2-0.2c0.1-0.4,0.2-0.8,0.3-1.2
				c1.9-7.9,3.9-15.9,6.4-23.7c0.2-0.8,0.6-1.7,1-2.5c0.4-1,1-1.9,2.5-2c1.3-0.1,2.2,0.4,2.5,1.5c0.5,1.8,0.8,3.6,1.2,5.3
				c0.7,2.5,1.2,4.9,1.9,7.3c1.6,6.4,3.2,12.8,4.7,19.3c1.1,4.9,2.1,9.8,3.2,14.8c0.2,1.1-0.2,1.7-1.3,2.1c-1.1,0.4-2.1,0.6-3.3,0.6
				c-1.5,0-2.2-0.4-2.6-1.6c-0.6-1.6-1-3.2-1.3-4.9c-0.9-3.9-1.7-7.7-2.5-11.6c-0.1-0.2-0.1-0.4-0.2-0.6
				C190.5,144.5,187.1,144.7,183.5,145z M189.5,121c-0.1,0-0.2,0-0.2,0c-1.6,6.6-3.2,13.2-4.9,20c3-0.2,5.8-0.4,8.7-0.6
				C191.9,133.9,190.7,127.5,189.5,121z"/>
			<path class="st12" d="M215.3,146.8c0.1,1.1,0.2,2.1,0.2,3.2c0.1,3.8,0.2,7.6,0.2,11.4c0,1.1-0.6,1.5-1.8,1.6
				c-0.7,0.1-1.5,0.1-2.2,0c-1-0.1-1.2-0.3-1.2-1.2c-0.1-1.1-0.2-2.3-0.2-3.4c-0.2-7-0.3-14.1-0.4-21.1c-0.2-5.8-0.2-11.6-0.2-17.4
				c0-1.6-0.2-3.2-0.2-4.8c0-0.6,0.1-1.2,0.2-1.8c0.1-0.5,0.4-0.8,1-0.8c3.9-0.9,7.2-0.3,10.3,1.9c3.8,2.9,6,6.5,7,10.6
				c0.4,1.6,0.7,3.2,0.7,4.8c0.1,2.7-0.4,5.4-1.9,7.8c-2,3.1-4.8,5.3-8.9,5.9c-0.8,0.1-1.6,0.2-2.5,0.4
				C215.3,144.7,215.3,145.8,215.3,146.8z M223.6,134.6c0.9-3.6,0.7-7.2-0.4-10.8c-0.7-2.2-1.7-4.4-3.3-6.3c-1-1.3-2.2-2.2-3.8-2.7
				c-0.4-0.2-0.9-0.4-1.3-0.3c-0.3,8.7,0.2,17.3,0.4,25.9C219.4,140.4,222.7,138,223.6,134.6z"/>
			<path class="st12" d="M238,146.8c0.1,1.1,0.2,2.1,0.2,3.2c0.1,3.8,0.2,7.6,0.2,11.4c0,1.1-0.6,1.5-1.8,1.6
				c-0.7,0.1-1.5,0.1-2.2,0c-1-0.1-1.2-0.3-1.2-1.2c-0.1-1.1-0.2-2.3-0.2-3.4c-0.2-7-0.3-14.1-0.4-21.1c-0.2-5.8-0.2-11.6-0.2-17.4
				c0-1.6-0.2-3.2-0.2-4.8c0-0.6,0.1-1.2,0.2-1.8c0.1-0.5,0.4-0.8,1-0.8c3.9-0.9,7.2-0.3,10.3,1.9c3.8,2.9,6,6.5,7,10.6
				c0.4,1.6,0.7,3.2,0.7,4.8c0.1,2.7-0.4,5.4-1.9,7.8c-2,3.1-4.8,5.3-8.9,5.9c-0.8,0.1-1.6,0.2-2.5,0.4
				C238,144.7,238,145.8,238,146.8z M246.3,134.6c0.9-3.6,0.7-7.2-0.4-10.8c-0.7-2.2-1.7-4.4-3.3-6.3c-1-1.3-2.2-2.2-3.8-2.7
				c-0.4-0.2-0.9-0.4-1.3-0.3c-0.3,8.7,0.2,17.3,0.4,25.9C242.1,140.4,245.5,138,246.3,134.6z"/>
			<path class="st12" d="M264.4,132.8c2-5.7,4-11.5,6.1-17.2c0.3-0.9,0.8-1.8,1.2-2.7c0.2-0.4,0.4-0.7,1-0.8c1.4-0.2,2,0.3,1.6,1.4
				c-2.1,6.3-3.9,12.7-6.5,18.8c-0.2,0.6-0.3,1.3-0.5,2c-0.1,0.3-0.1,0.5-0.2,0.7c-0.6,1.5-0.6,3.1-0.6,4.6c0,5.2,0.1,10.3,0.1,15.5
				c0,2,0,4.1,0,6.2c0,1.1-0.5,1.5-1.7,1.5c-1.1,0-2.1-0.1-3.2-0.1c-1.1-0.1-1.6-0.6-1.8-1.5c-0.1-1.4-0.2-2.7-0.2-4.1
				c-0.1-5.2-0.1-10.4-0.1-15.6c0-1.3,0.1-2.5,0.2-3.8c0-0.3,0-0.6-0.1-0.8c-1.4-4.7-2.8-9.4-4.3-14.1c-0.9-3-1.7-6-2.3-9.1
				c0-0.1-0.1-0.4-0.1-0.5c0-0.5,0.1-0.8,0.7-1c0.2,0,0.3-0.1,0.5-0.1c1.2,0,2.5-0.1,3.7,0.1c0.3,0,0.7,0.4,0.9,0.7
				c0.3,0.6,0.7,1.3,0.8,2c1,4.3,1.9,8.6,2.9,12.9c0.4,1.8,0.9,3.6,1.4,5.3c0,0.1,0.1,0.2,0.2,0.4
				C264.2,133.3,264.3,133,264.4,132.8z"/>
		</g>
		<g>
			<path class="st12" d="M184.5,315.9c2.2,0,4.5-0.1,6.8-0.1c0.1,0,0.1,0,0.2,0c1.3,0,1.5,0.2,1.6,1.5c0,0.5,0.1,1,0,1.5
				c-0.1,0.6-0.3,0.9-1,0.9c-1.9,0.1-3.7,0.3-5.5,0.3c-2.7,0.1-5.5-0.1-8.2-0.1c-0.1,0-0.1,0-0.1,0c-1.7-0.1-2.2-0.8-2.2-2.4
				c0-6.5,0-13,0.1-19.5c0-5.5,0.1-11.1,0.1-16.6c0.1-3.3,0.1-6.6,0.3-9.9c0.1-1.9,0.5-2.3,2.4-2.4c0.6,0,1.3,0,2,0
				c0.9,0,1.5,0.3,1.7,1.3c0.1,0.6,0.2,1.1,0.2,1.7c0.1,2,0.1,4,0.1,6c0,6.2,0.1,12.5,0,18.6c0,6.2-0.1,12.3-0.1,18.5
				c0,0.2,0,0.4,0,0.8C183.5,315.9,184,315.9,184.5,315.9z"/>
			<path class="st12" d="M216.3,310.6c-0.6,1.9-1.3,3.6-2.4,5.2c-1.5,2.2-3.5,3.6-6.1,4.1c-3.6,0.6-6.8-0.3-9.2-3.3
				c-1.6-2-2.6-4.3-3.4-6.8c-1.5-4.7-2.2-9.5-1.9-14.4c0.1-3.5,0.7-6.9,1.4-10.3c0.4-1.9,0.8-3.8,1.3-5.7c0.7-2.7,2-5.1,3.7-7.2
				c0.7-0.8,1.5-1.6,2.4-2.2c1.5-0.8,2.9-0.9,4.5-0.4c1.3,0.4,2.3,1,3.3,2c1.4,1.3,2.4,2.8,3.4,4.5c1.5,2.9,2.6,6,3.4,9.2
				c1,4.1,1.3,8.3,1.4,12.3C218,302.1,217.6,306.4,216.3,310.6z M215,293.4c-0.3-3.9-1-7.8-2.2-11.5c-0.7-2-1.5-4.1-2.7-5.9
				c-0.7-1.1-1.5-2.2-2.7-2.9c-0.3-0.3-0.6-0.4-1-0.4c-0.8,0-1.3,0.3-1.8,0.9c-0.6,0.8-1,1.6-1.3,2.5c-0.6,1.7-0.8,3.6-0.9,5.4
				c-0.3,5-0.6,10.1-0.4,15.2c0.1,4.1,0.5,8,1.2,12.1c0.3,1.8,0.7,3.7,1.4,5.5c0.3,0.7,0.7,1.5,1.2,2.1c0.7,0.8,1.3,0.9,2.2,0.6
				c1.6-0.6,2.9-1.5,3.8-3c0.9-1.4,1.5-2.9,2-4.5c1-3.8,1.5-7.8,1.5-11.7C215.2,296.3,215.2,294.9,215,293.4z"/>
			<path class="st12" d="M232.6,304.3c1-4.4,2.1-8.9,3.3-13.2c1.6-6.2,3.4-12.9,5-19.1c0.2-0.7,0.5-1.3,0.8-2
				c0.3-0.6,0.7-0.8,1.3-0.7c1,0.1,1.3,0.6,1.1,1.5c-0.6,2.4-1.1,5.3-2,7.7c-1.3,4-2.4,8-3.5,12.1c-1.5,6.1-3,12.2-4.5,18.3
				c-0.7,2.7-1.5,5.5-2.3,8.2c-0.1,0.6-0.3,1.1-0.6,1.7c-0.1,0.3-0.3,0.7-0.6,0.9c-0.7,0.8-1.7,0.6-2.3-0.2c-0.1-0.3-0.3-0.6-0.3-1
				c-0.7-2.9-1.5-5.7-2.1-8.6c-1.6-7.4-2.7-14.9-4-22.4c-0.7-4.3-1.5-8.7-2.3-13c-0.2-1.3-0.4-2.5-0.6-3.8c-0.1-0.6,0.1-0.9,0.6-1.1
				c0.4-0.2,0.8-0.3,1.3-0.3c0.9,0,1.8,0.1,2.7,0.2c0.6,0,1,0.3,1.1,0.9c0.5,1.5,1,2.9,1.3,4.3c0.9,4.3,1.7,8.7,2.7,13.1
				c1.1,5.6,2.3,11.2,3.4,16.8c0.1,0.1,0.1,0.3,0.2,0.7C232.5,304.7,232.5,304.5,232.6,304.3z"/>
			<path class="st12" d="M258,296.1c1.7,0,3.4,0,5,0.1c1.3,0,1.7,0.6,1.7,1.8c0.1,0.3,0,0.8,0,1.2c-0.1,0.3-0.3,0.6-0.6,0.7
				c-0.5,0.1-1,0.2-1.6,0.2c-1.7,0.1-3.4,0.1-5.2,0.1c-0.7,0-1.4,0-2.2,0c-0.1,0.5-0.1,0.8-0.1,1.2c0,3.8,0,7.7,0,11.5
				c0,0.8-0.1,1.5-0.1,2.4c0,0.2,0,0.4,0,0.8c1.1,0,2.1,0,3.1,0c2-0.1,4-0.2,6,0c0.8,0.1,1.3,0.5,1.5,1.3c0.3,1.5,0.1,2.4-1.8,2.4
				c-2.4,0.1-4.8,0.1-7.3,0.1c-1.7,0-3.6,0-5.3,0c-0.5,0-0.9,0-1.4-0.1c-0.7-0.1-1-0.5-1-1.3c0-9.4,0-18.9,0-28.3
				c0-5.7,0.1-11.3,0.2-16.9c0-0.3,0-0.6,0-0.7c-0.3-0.4-0.8-0.6-0.9-0.9c-0.1-0.6-0.1-1.2,0-1.7c0.1-0.3,0.3-0.3,0.6-0.4
				c2.3-0.1,4.5-0.3,6.9-0.4c2.3-0.1,4.7-0.1,7-0.1c0.7,0,1.3,0.1,2,0.2c0.8,0.2,1,0.6,1,1.5c-0.1,0.9-0.4,1.3-1.2,1.5
				c-0.6,0.1-1,0.1-1.6,0.1c-2.2,0-4.4,0-6.6,0c-0.3,0-0.6,0-0.9,0c0.4,7.9-0.2,15.8,0,23.9C256.1,296.1,257,296.1,258,296.1z"/>
			<path class="st12" d="M278,315.9c2.2,0,4.5-0.1,6.8-0.1c0.1,0,0.1,0,0.2,0c1.3,0,1.5,0.2,1.6,1.5c0,0.5,0.1,1,0,1.5
				c-0.1,0.6-0.3,0.9-1,0.9c-1.9,0.1-3.7,0.3-5.5,0.3c-2.7,0.1-5.5-0.1-8.2-0.1c-0.1,0-0.1,0-0.1,0c-1.7-0.1-2.2-0.8-2.2-2.4
				c0-6.5,0-13,0.1-19.5c0-5.5,0.1-11.1,0.1-16.6c0.1-3.3,0.1-6.6,0.3-9.9c0.1-1.9,0.5-2.3,2.4-2.4c0.6,0,1.3,0,2,0
				c0.9,0,1.5,0.3,1.7,1.3c0.1,0.6,0.2,1.1,0.2,1.7c0.1,2,0.1,4,0.1,6c0,6.2,0.1,12.5,0,18.6c0,6.2-0.1,12.3-0.1,18.5
				c0,0.2,0,0.4,0,0.8C277,315.9,277.5,315.9,278,315.9z"/>
			<path class="st12" d="M296.3,289.9c1.7-5.7,3.4-11.4,5.2-17.1c0.3-0.9,0.7-1.8,1-2.7c0.1-0.4,0.3-0.7,0.8-0.8
				c1.2-0.2,1.7,0.3,1.3,1.4c-1.8,6.3-3.4,12.6-5.5,18.7c-0.2,0.6-0.3,1.3-0.4,2c-0.1,0.3-0.1,0.5-0.1,0.7c-0.5,1.5-0.5,3.1-0.5,4.5
				c0,5.2,0.1,10.3,0.1,15.5c0,2,0,4.1,0,6.2c0,1-0.4,1.5-1.5,1.5c-0.9,0-1.8-0.1-2.7-0.1c-0.9-0.1-1.4-0.6-1.5-1.5
				c-0.1-1.4-0.2-2.7-0.2-4.1c-0.1-5.2-0.1-10.4-0.1-15.5c0-1.3,0.1-2.5,0.1-3.8c0-0.3,0-0.6-0.1-0.8c-1.2-4.7-2.4-9.4-3.6-14.1
				c-0.8-3-1.5-6-2-9.1c0-0.1-0.1-0.3-0.1-0.5c0-0.5,0.1-0.8,0.6-1c0.1,0,0.3-0.1,0.4-0.1c1,0,2.1-0.1,3.1,0.1
				c0.3,0,0.6,0.4,0.8,0.7c0.3,0.6,0.6,1.3,0.7,2c0.8,4.3,1.6,8.5,2.4,12.8c0.3,1.8,0.8,3.6,1.2,5.3c0,0.1,0.1,0.2,0.2,0.4
				C296.1,290.4,296.2,290.2,296.3,289.9z"/>
		</g>
	</g>
	<g>
		<path class="st15" d="M355.7,145.3c12.4-1.2,22.2,7.7,9.3,24c-11.3,14.3-25.6,14.9-35.3,18.4c-8.9,3.3-12.4-2.5-12.6-2.6
			c-4-3.3,4.9-4.4,8.2-28.6C329.2,126.9,353,133.2,355.7,145.3z M356.5,149c-3.1,25.6-28.1,10-5.4-2.4c-0.4-4.4-3.3-9.1-7.5-8.1
			c-14.5,3.4-6.5,23.5-19.1,45C366.7,176.9,374.2,143.3,356.5,149z M349.9,152.9c-2.5,1.5-4.5,4.7-4.5,6.9
			C347.6,157.9,348.9,155.5,349.9,152.9z"/>
		<path class="st15" d="M300.2,118.6c8.3-5.5,13.8-0.1,13.6,7.7c-0.4,15.8-9.4,19.9-15.6,29.6c-2.2,3.5-7,2.3-7,0.2c0-0.5-2-2-3-3.4
			c-13.9-18.6-4.3-38.7,9.9-34.8C298.9,118.1,299.6,118.4,300.2,118.6z M302.7,120.3c0.6,1.1,1.2,2,1.6,2.9
			c1.9,5.3-1.2,10.3-4.3,11.4c-3.7,1.4-7.4-4.7-1.7-13.8c-1.2-1.4-2.5-1.9-5.5-0.2c-9.7,5.4-7.2,24.7-0.2,33.1
			c9.3-10.6,15.1-14.4,16.2-28.4c0.3-3.4-0.9-8.1-3-7.2C304.6,118.7,303.6,119.5,302.7,120.3z M298.1,132c2-1.6,2.9-5.9,1.7-7.8
			C298.7,126.7,298.1,129.2,298.1,132z"/>
		<path class="st15" d="M99.7,125.7c-13.4-1.4-25.4,7.4-12.6,24.3c11.2,14.6,27,15.4,37.3,19.1c9.5,3.4,14-2.4,14.2-2.5
			c4.7-3.3-5-4.5-6.3-29.1C130.8,107.4,103.9,113.1,99.7,125.7z M98.4,129.3c0.9,26.1,30.1,10.5,6.3-2.4c0.9-4.6,4.6-9.2,9.1-8.2
			c15.7,3.6,4.9,24,16.8,45.9C85.2,157.7,79,123.3,98.4,129.3z M105.3,133.4c2.6,1.6,4.5,4.8,4.3,7.1
			C107.4,138.5,106.2,136,105.3,133.4z"/>
		<path class="st15" d="M138.6,274.1c-22.1-6.4-18.4,21.4,1.3,33.1c7.9,4.7,12.7,6.6,14,7.3c7.1,4.2,11.2-0.1,11.4-0.2
			c4-2.2-3.5-4.6-2.2-25.8C164.7,262.5,143,264.2,138.6,274.1z M137.3,277.1c-1.7,22.5,22.5,13.1,5.1-1.2c1.1-3.7,4.4-7.3,7.9-5.7
			c11.9,5.3,1.6,21.3,8.8,41.5C124.2,299.4,122.7,269.2,137.3,277.1z M142.3,281.5c1.9,1.7,3.1,4.7,2.7,6.7
			C143.4,286.1,142.8,283.9,142.3,281.5z"/>
	</g>
</g>
</svg>
